<?xml version="1.0" standalone="no"?>
<!DOCTYPE svg PUBLIC "-//W3C//DTD SVG 20010904//EN"
 "http://www.w3.org/TR/2001/REC-SVG-20010904/DTD/svg10.dtd">
<svg version="1.0" xmlns="http://www.w3.org/2000/svg"
 width="1500.000000pt" height="1500.000000pt" viewBox="0 0 1500.000000 1500.000000"
 preserveAspectRatio="xMidYMid meet">
<metadata>
Created by potrace 1.14, written by Peter Selinger 2001-2017
</metadata>
<g transform="translate(0.000000,1500.000000) scale(0.100000,-0.100000)"
fill="#000000" stroke="none">
<path d="M10438 14996 c-1 -2 -28 -6 -58 -10 -30 -3 -73 -9 -95 -12 -72 -10
-241 -63 -337 -104 -51 -23 -101 -44 -110 -47 -10 -3 -18 -9 -18 -14 0 -5 -4
-9 -10 -9 -17 0 -151 -90 -225 -150 -125 -102 -231 -220 -317 -355 -67 -103
-155 -287 -172 -360 -2 -5 -8 -30 -15 -55 -8 -25 -14 -49 -15 -55 -1 -5 -5
-23 -9 -40 -24 -109 -31 -185 -31 -325 0 -133 12 -243 34 -329 10 -38 5 -46
-62 -78 -21 -10 -38 -21 -38 -25 0 -5 -5 -8 -10 -8 -6 0 -65 -32 -133 -71
-136 -80 -156 -91 -242 -139 -33 -19 -62 -36 -65 -39 -5 -6 -81 -48 -117 -65
-13 -6 -23 -14 -23 -18 0 -5 -4 -8 -9 -8 -5 0 -134 -72 -287 -161 -154 -88
-297 -171 -319 -184 -72 -40 -150 -85 -165 -95 -16 -10 -86 -50 -165 -95 -27
-15 -83 -47 -122 -71 -40 -24 -75 -44 -77 -44 -2 0 -60 -33 -127 -73 -68 -40
-131 -76 -139 -80 -8 -4 -31 -17 -50 -28 -19 -12 -125 -73 -235 -136 -110 -64
-211 -123 -225 -131 -14 -9 -27 -17 -30 -17 -3 0 -50 -27 -105 -60 -169 -99
-256 -150 -360 -209 -55 -32 -107 -61 -115 -66 -52 -32 -294 -170 -297 -170
-3 0 -54 43 -83 71 -34 32 -187 135 -250 168 -84 44 -88 47 -130 64 -82 35
-110 46 -110 42 0 -2 -17 3 -37 11 -20 9 -46 18 -57 20 -12 2 -52 10 -91 19
-38 8 -92 17 -120 21 -67 10 -318 10 -380 0 -27 -4 -66 -9 -85 -12 -51 -8
-211 -51 -256 -69 -271 -110 -461 -244 -639 -450 -47 -54 -125 -162 -125 -172
0 -4 -6 -14 -14 -22 -57 -67 -153 -307 -190 -476 -43 -197 -44 -410 -2 -640 5
-28 25 -96 52 -183 24 -75 86 -204 142 -295 185 -303 463 -528 792 -643 l95
-34 0 -627 c0 -412 -3 -628 -10 -629 -5 0 -18 -4 -27 -8 -9 -4 -22 -9 -30 -10
-12 -3 -44 -15 -88 -33 -8 -3 -20 -7 -26 -8 -15 -4 -170 -85 -209 -110 -50
-32 -179 -127 -196 -144 -9 -9 -36 -34 -60 -57 -64 -59 -139 -147 -204 -243
-77 -112 -179 -328 -200 -421 -2 -8 -13 -55 -25 -105 -29 -120 -32 -144 -33
-325 -1 -142 1 -177 19 -280 13 -82 53 -221 75 -262 5 -10 9 -23 9 -29 0 -15
98 -210 115 -229 7 -8 14 -18 14 -23 1 -10 26 -46 99 -139 207 -263 496 -447
832 -533 131 -33 234 -43 405 -40 135 3 178 7 225 20 8 2 31 7 50 10 252 42
561 208 768 414 34 34 62 65 62 68 0 3 8 13 18 22 30 28 92 109 92 120 0 7 7
14 15 17 8 4 15 11 15 16 0 6 14 30 30 55 17 24 30 50 30 58 0 7 3 15 8 17 4
2 22 37 40 78 18 41 37 82 42 91 9 16 58 190 66 233 2 11 6 32 9 46 14 70 19
148 18 280 -2 146 -4 172 -27 287 -15 73 -15 72 74 119 30 16 57 31 60 34 3 3
84 50 180 105 96 54 177 102 180 105 3 3 16 11 30 17 14 7 48 26 75 43 28 16
56 33 64 37 8 3 63 35 123 70 60 35 113 63 118 63 4 0 10 3 12 8 2 4 73 47
158 96 85 49 171 98 190 109 19 11 55 31 80 45 25 14 56 32 70 41 52 33 65 41
80 48 8 4 51 28 95 54 211 123 398 229 404 229 4 0 16 8 27 18 10 9 30 23 44
29 14 7 51 27 82 45 191 110 242 138 249 138 4 0 9 3 11 8 2 4 104 65 228 136
124 71 239 137 255 148 17 10 37 21 45 25 8 4 49 27 90 51 41 25 90 53 108 63
17 11 48 28 67 39 19 11 52 29 73 41 20 12 80 46 132 76 52 31 98 58 102 60 4
2 21 -9 38 -24 38 -36 46 -42 95 -78 22 -17 42 -32 45 -36 38 -43 290 -170
423 -213 12 -4 17 -17 18 -48 0 -58 0 -1164 0 -1210 -1 -33 -5 -39 -28 -44
-16 -4 -32 -10 -38 -13 -5 -4 -28 -13 -50 -20 -68 -23 -303 -146 -325 -170 -3
-4 -23 -20 -45 -36 -70 -52 -88 -68 -175 -156 -90 -90 -187 -220 -247 -329
-38 -68 -110 -236 -117 -273 -3 -12 -10 -38 -16 -57 -6 -19 -13 -44 -15 -55
-3 -11 -8 -33 -11 -50 -38 -175 -37 -444 3 -620 12 -54 11 -55 -119 -131 -70
-41 -132 -74 -138 -74 -5 0 -10 -4 -10 -8 0 -5 -22 -19 -50 -32 -27 -13 -50
-27 -50 -32 0 -4 -6 -8 -12 -8 -7 -1 -38 -16 -68 -35 -30 -19 -66 -40 -80 -47
-14 -7 -68 -38 -120 -68 -52 -31 -102 -59 -110 -63 -8 -4 -31 -17 -50 -28
-134 -80 -220 -129 -229 -129 -5 0 -11 -3 -13 -8 -1 -4 -109 -68 -238 -141
-129 -74 -246 -142 -260 -151 -14 -9 -50 -30 -80 -47 -30 -17 -95 -54 -145
-83 -105 -61 -208 -120 -340 -195 -27 -16 -77 -45 -110 -65 -33 -20 -67 -39
-75 -43 -8 -4 -33 -18 -55 -32 -22 -14 -47 -28 -55 -32 -8 -4 -37 -20 -65 -36
-48 -28 -67 -39 -152 -88 -21 -12 -51 -30 -68 -40 -16 -10 -41 -24 -55 -32
-97 -53 -316 -182 -318 -189 -2 -4 -10 -8 -19 -8 -8 0 -27 -8 -41 -19 -15 -10
-47 -29 -72 -43 -25 -14 -61 -35 -80 -46 -19 -12 -44 -26 -55 -32 -11 -6 -42
-24 -70 -40 -27 -17 -64 -38 -81 -46 l-31 -16 -99 80 c-109 87 -212 153 -319
201 -39 18 -79 36 -90 41 -22 10 -138 48 -170 55 -100 22 -161 34 -220 40
-414 46 -819 -76 -1150 -346 -106 -86 -253 -249 -293 -326 -7 -12 -18 -27 -25
-35 -24 -25 -127 -243 -156 -333 -55 -166 -74 -288 -75 -470 0 -127 7 -217 24
-300 6 -27 13 -63 16 -79 14 -73 112 -326 134 -346 3 -3 13 -21 22 -40 20 -41
51 -93 59 -100 3 -3 16 -21 30 -41 13 -20 42 -57 64 -84 248 -296 583 -483
975 -542 61 -9 346 -11 391 -3 24 5 64 11 89 15 24 4 47 8 51 10 3 2 21 7 40
10 149 26 428 160 573 275 387 305 602 759 591 1245 -3 123 -8 187 -21 245 -4
14 -8 39 -11 55 -3 17 -7 32 -9 34 -5 5 194 121 207 121 5 0 9 4 9 9 0 5 9 13
21 16 11 4 68 35 127 69 265 155 302 176 306 174 2 -2 12 4 22 13 11 9 46 31
79 50 33 19 69 39 80 46 11 7 27 15 35 19 8 4 31 17 50 29 19 12 55 33 80 47
67 37 109 62 168 97 29 17 55 31 58 31 3 0 18 8 32 19 15 10 149 88 297 173
149 86 342 197 430 248 88 51 180 104 205 118 25 14 56 32 70 41 14 10 36 22
50 29 14 7 41 22 60 33 120 73 413 239 420 239 5 0 10 3 12 8 2 4 17 14 33 23
17 9 145 82 285 163 140 82 275 159 300 174 25 14 55 32 67 39 20 13 25 12 65
-24 140 -125 290 -218 468 -288 52 -20 102 -38 110 -40 8 -2 42 -10 75 -18
134 -35 189 -41 370 -41 139 -1 267 8 286 20 3 2 21 6 40 9 43 8 212 57 219
64 3 4 12 7 20 9 45 10 296 145 320 172 3 3 21 17 40 30 97 68 218 191 329
335 22 30 111 184 111 194 0 6 5 11 10 11 6 0 10 8 10 18 0 10 4 22 9 28 20
22 89 228 107 319 2 11 6 31 9 45 16 86 19 132 18 280 0 91 -4 185 -7 210 -9
58 -25 138 -36 170 -4 14 -14 45 -21 70 -64 217 -224 478 -390 635 -79 76
-173 155 -183 155 -3 0 -15 8 -26 17 -55 48 -256 148 -378 188 l-77 26 0 630
0 630 55 16 c30 10 57 18 60 18 3 1 19 7 35 14 17 6 44 17 60 23 56 23 228
115 260 140 6 5 44 34 85 67 114 88 228 205 293 300 17 25 33 48 36 51 8 7 29
41 43 70 7 14 15 27 18 30 6 5 61 119 92 190 13 29 45 127 54 165 18 77 27
114 30 135 2 14 8 52 13 85 10 63 7 325 -3 385 -21 112 -30 153 -51 226 -13
45 -29 93 -36 105 -7 13 -12 26 -11 29 1 8 -77 172 -96 200 -9 14 -17 28 -17
31 0 3 -29 46 -65 95 -217 299 -518 503 -875 593 -44 11 -98 23 -120 26 -22 3
-58 8 -81 11 -118 16 -382 5 -462 -20 -9 -3 -35 -8 -57 -12 -22 -3 -47 -10
-55 -14 -8 -4 -19 -8 -25 -9 -81 -8 -368 -147 -466 -225 -14 -12 -38 -30 -54
-41 -27 -18 -227 -216 -250 -246 -85 -113 -118 -168 -180 -295 -47 -96 -110
-277 -120 -347 -4 -23 -8 -44 -10 -48 -15 -24 -24 -328 -13 -434 6 -59 23
-154 34 -187 3 -12 -11 -25 -53 -50 -32 -18 -66 -37 -75 -43 -9 -5 -29 -17
-45 -26 -15 -9 -46 -26 -68 -39 -22 -12 -58 -33 -80 -45 -22 -13 -123 -71
-225 -131 -102 -59 -200 -114 -217 -123 -18 -8 -33 -19 -33 -23 0 -4 -5 -8
-11 -8 -6 0 -43 -20 -82 -44 -40 -24 -82 -46 -94 -50 -13 -4 -23 -12 -23 -17
0 -5 -4 -9 -9 -9 -5 0 -67 -34 -136 -75 -70 -41 -129 -75 -131 -75 -3 0 -23
-11 -45 -26 -39 -24 -76 -46 -149 -86 -19 -11 -48 -28 -65 -39 -16 -10 -37
-22 -45 -26 -13 -6 -87 -48 -215 -123 -41 -24 -152 -88 -195 -112 -161 -92
-320 -185 -342 -200 -14 -10 -33 -18 -41 -18 -9 0 -17 -4 -19 -8 -3 -8 -10
-12 -246 -148 -89 -52 -166 -94 -171 -94 -5 0 -11 -3 -13 -7 -4 -10 -76 -52
-100 -60 -10 -3 -18 -9 -18 -14 0 -5 -5 -9 -10 -9 -6 0 -43 -20 -83 -44 -73
-44 -174 -102 -250 -144 -23 -13 -83 -48 -134 -78 -51 -30 -96 -54 -100 -54
-5 0 -26 17 -48 37 -50 47 -225 173 -241 173 -7 0 -14 4 -16 9 -4 11 -149 80
-238 114 -68 25 -74 27 -90 27 -7 0 -10 219 -10 637 0 350 3 633 7 630 3 -4
11 -3 17 2 6 5 31 14 56 21 61 16 251 108 330 161 86 56 193 144 256 210 83
86 114 122 114 128 0 3 10 17 23 31 12 14 34 43 47 65 13 22 27 42 30 45 3 3
15 23 26 45 11 22 31 60 44 85 13 25 25 50 26 55 2 6 14 37 28 70 35 85 74
237 92 363 10 63 11 303 2 356 -4 28 -10 67 -13 86 -2 19 -9 53 -14 74 -10 43
-7 49 49 78 27 14 176 100 335 194 55 32 102 59 105 59 3 0 16 8 30 16 69 44
131 79 139 79 5 0 16 6 23 13 8 6 23 17 33 23 11 6 97 55 190 109 476 275 623
359 650 374 16 9 32 18 35 21 6 6 86 50 117 65 13 5 23 13 23 18 0 4 4 7 9 7
6 0 307 170 371 210 8 5 49 28 90 52 41 23 84 48 95 55 11 7 27 15 35 19 8 4
74 43 148 86 73 43 137 78 142 78 6 0 10 5 10 10 0 6 5 10 10 10 6 0 56 27
111 60 55 33 102 60 105 60 2 0 23 12 47 27 23 14 67 40 97 56 30 16 62 35 70
41 8 7 29 18 45 26 17 8 32 17 35 20 5 5 23 15 88 51 20 11 51 29 67 39 17 10
53 31 80 46 28 14 62 35 77 46 15 11 36 20 45 20 10 1 64 -35 120 -80 56 -45
104 -82 107 -82 3 0 22 -12 43 -26 105 -72 359 -174 498 -200 17 -3 41 -7 55
-10 79 -14 178 -21 285 -18 103 3 210 10 210 14 0 2 21 6 60 13 171 28 395
121 555 231 41 28 80 55 87 61 148 129 184 166 273 275 8 10 23 28 33 39 9 12
17 24 17 27 0 3 13 24 28 47 77 113 171 332 197 462 2 6 8 37 15 70 7 33 14
76 15 96 1 20 5 40 8 46 12 19 -1 329 -17 413 -81 421 -309 772 -646 998 -108
72 -112 75 -190 112 -133 65 -304 119 -426 136 -27 3 -53 8 -57 11 -9 6 -303
14 -309 9z m257 -856 c105 -24 176 -55 270 -120 42 -29 135 -119 135 -131 0
-4 6 -14 14 -21 42 -43 111 -206 124 -293 7 -51 6 -168 -2 -224 -7 -47 -45
-173 -55 -181 -3 -3 -17 -27 -31 -55 -14 -28 -62 -87 -110 -135 -68 -68 -103
-95 -170 -128 -255 -126 -539 -94 -756 85 -215 178 -303 483 -213 745 61 179
171 303 358 406 35 20 137 51 189 58 26 3 48 7 49 8 7 6 157 -4 198 -14z
m-6063 -3514 c61 -14 136 -45 223 -93 17 -9 66 -53 110 -98 228 -232 264 -582
89 -853 -40 -60 -155 -182 -173 -182 -6 0 -11 -4 -11 -10 0 -5 -6 -10 -14 -10
-8 0 -16 -4 -18 -8 -5 -13 -116 -63 -173 -79 -136 -38 -313 -33 -420 12 -163
69 -238 125 -331 250 -113 150 -158 383 -110 560 9 33 19 68 21 77 2 10 10 30
19 45 8 16 23 44 32 63 26 49 39 65 124 150 47 47 97 86 135 105 33 16 63 34
67 40 4 5 8 7 8 3 0 -4 15 -1 34 7 18 8 49 17 67 21 19 4 50 10 69 13 55 11
179 4 252 -13z m6008 -680 c274 -27 521 -247 586 -522 28 -116 24 -232 -11
-364 -2 -8 -4 -15 -5 -15 -1 0 -3 -8 -5 -17 -3 -19 -18 -49 -60 -122 -25 -45
-51 -77 -110 -140 -32 -32 -103 -86 -114 -86 -6 0 -11 -5 -11 -11 0 -5 -4 -8
-9 -5 -5 3 -14 -1 -21 -9 -7 -8 -18 -15 -24 -15 -6 0 -23 -6 -38 -14 -94 -49
-304 -65 -428 -32 -128 33 -246 102 -337 197 -24 24 -43 47 -43 51 0 3 -7 13
-15 21 -34 34 -95 167 -111 241 -27 122 -22 260 12 362 16 48 64 154 74 164 3
3 16 21 30 40 38 55 88 106 133 137 23 15 44 31 47 35 11 14 126 66 180 82 63
18 162 33 200 30 14 -1 50 -5 80 -8z m-6074 -3510 c104 -12 235 -64 318 -126
31 -23 146 -138 146 -146 0 -4 6 -15 14 -23 21 -24 76 -137 91 -190 21 -70 27
-110 28 -186 2 -193 -65 -359 -197 -490 -90 -89 -99 -95 -188 -140 -67 -33
-91 -41 -178 -62 -14 -3 -72 -6 -130 -6 -158 0 -286 43 -415 141 -119 90 -223
246 -250 377 -3 14 -8 37 -11 53 -17 85 -3 271 26 337 5 11 18 42 29 69 40 93
136 209 226 272 25 17 82 48 155 84 15 7 102 29 134 34 8 1 17 4 20 7 6 6 120
3 182 -5z m6190 -741 c286 -96 476 -366 469 -670 -2 -66 -7 -106 -20 -155 -1
-3 -5 -18 -10 -35 -4 -16 -11 -34 -16 -40 -4 -5 -7 -13 -8 -18 0 -16 -35 -87
-43 -87 -4 0 -8 -6 -8 -12 0 -24 -88 -122 -160 -180 -77 -62 -195 -115 -305
-136 -41 -8 -202 -7 -245 2 -117 24 -220 72 -307 143 -167 135 -256 325 -254
540 0 75 6 113 35 223 8 31 52 117 83 161 176 254 496 361 789 264z m-6221
-3479 c22 -3 54 -7 72 -10 42 -7 161 -54 195 -77 14 -11 29 -19 32 -19 9 0 46
-31 108 -93 210 -207 263 -527 130 -792 -83 -167 -220 -284 -404 -346 -79 -27
-108 -32 -193 -32 -112 -1 -145 4 -225 28 -65 20 -174 76 -211 107 -15 13 -40
34 -56 48 -80 69 -160 203 -194 325 -24 90 -29 238 -10 315 7 25 14 56 17 69
16 78 128 250 199 307 19 16 48 39 63 51 15 13 31 23 35 23 5 0 21 9 35 19 38
27 167 68 238 76 32 4 60 8 62 10 3 3 25 1 107 -9z"/>
</g>
</svg>
